<?xml version="1.0" standalone="no"?>
<!DOCTYPE svg PUBLIC "-//W3C//DTD SVG 20010904//EN"
 "http://www.w3.org/TR/2001/REC-SVG-20010904/DTD/svg10.dtd">
<svg version="1.0" xmlns="http://www.w3.org/2000/svg"
 width="745.000000pt" height="745.000000pt" viewBox="0 0 745.000000 745.000000"
 preserveAspectRatio="xMidYMid meet">
<metadata>
Created by potrace 1.14, written by Peter Selinger 2001-2017
</metadata>
<g transform="translate(0.000000,745.000000) scale(0.100000,-0.100000)"
fill="#000000" stroke="none">
<path d="M2709 6641 c-56 -56 -154 154 1196 -2556 394 -792 813 -1634 930
-1871 148 -299 221 -437 240 -452 16 -13 42 -22 61 -22 68 0 80 19 354 575
142 286 565 1137 940 1890 472 947 684 1383 687 1412 5 38 2 46 -30 78 l-35
35 -494 0 c-477 0 -494 -1 -526 -20 -29 -18 -60 -75 -231 -423 -109 -221 -377
-759 -595 -1195 -296 -592 -396 -802 -396 -828 0 -78 93 -121 155 -72 19 15
189 347 603 1180 l575 1158 359 0 c206 0 358 -4 358 -9 0 -5 -122 -254 -271
-553 -150 -298 -537 -1076 -861 -1728 l-590 -1185 -327 655 c-179 360 -691
1389 -1137 2286 -590 1184 -819 1637 -839 1652 -40 32 -90 29 -126 -7z"/>
<path d="M2239 5693 c-25 -22 -108 -180 -370 -708 -185 -374 -608 -1224 -939
-1890 -414 -832 -604 -1223 -607 -1252 -5 -38 -2 -46 30 -78 l35 -35 496 0
496 0 35 32 c27 26 113 189 375 716 l339 682 451 0 452 0 29 29 c21 22 29 39
29 66 0 27 -8 44 -29 66 l-29 29 -500 0 c-480 0 -500 -1 -524 -19 -16 -13
-148 -267 -368 -710 l-344 -691 -358 0 c-210 0 -358 4 -358 9 0 5 93 195 206
423 114 227 501 1005 862 1728 l655 1315 432 -870 c1748 -3514 1842 -3701
1870 -3723 40 -32 89 -29 126 7 56 56 165 -174 -1291 2746 -447 897 -865 1739
-931 1871 -77 157 -127 249 -145 263 -38 30 -85 27 -125 -6z"/>
</g>
</svg>
